<?xml version="1.0" standalone="no"?>
<!DOCTYPE svg PUBLIC "-//W3C//DTD SVG 20010904//EN"
 "http://www.w3.org/TR/2001/REC-SVG-20010904/DTD/svg10.dtd">
<svg version="1.0" xmlns="http://www.w3.org/2000/svg"
 width="1280.000000pt" height="720.000000pt" viewBox="0 0 1280.000000 720.000000"
 preserveAspectRatio="xMidYMid meet">
<metadata>
Created by potrace 1.15, written by Peter Selinger 2001-2017
</metadata>
<g transform="translate(0.000000,720.000000) scale(0.100000,-0.100000)"
fill="#000000" stroke="none">
<path d="M4345 5983 c-162 -22 -310 -123 -384 -264 -65 -120 -61 22 -61 -2130
0 -1942 0 -1968 20 -2032 52 -166 198 -301 368 -336 75 -16 3929 -16 4004 0
177 37 325 180 373 360 22 83 22 3938 0 4022 -22 85 -61 154 -123 219 -67 70
-132 113 -215 142 l-62 21 -1945 1 c-1070 1 -1958 -1 -1975 -3z m2659 -1289
l79 -75 -47 -48 c-25 -25 -46 -52 -46 -58 0 -6 45 -144 101 -306 l101 -295 66
30 c90 41 178 58 302 58 199 0 341 -48 489 -163 120 -93 226 -254 265 -402 56
-210 17 -467 -98 -644 -153 -237 -382 -361 -663 -361 -301 1 -549 151 -696
421 -74 135 -104 292 -87 459 20 192 80 320 215 457 85 86 90 94 81 118 -11
25 -26 9 -401 -411 -347 -389 -391 -441 -396 -477 -6 -40 -37 -77 -65 -77 -19
0 -30 -28 -50 -129 -10 -54 -12 -86 -6 -90 6 -3 12 -24 14 -46 l3 -40 -88 -3
-87 -3 0 40 c0 36 3 40 27 43 26 3 29 8 55 121 l28 119 -23 18 c-21 18 -162
49 -236 53 -32 2 -33 1 -60 -73 -79 -220 -281 -400 -541 -481 -97 -31 -298
-33 -399 -5 -222 61 -416 220 -521 426 -97 190 -106 448 -24 651 86 211 293
396 519 461 67 19 104 23 220 23 164 0 227 -14 353 -77 45 -23 84 -39 85 -37
2 2 56 70 119 151 l116 147 -17 58 -17 58 -75 25 c-114 38 -212 144 -153 167
8 3 72 -2 141 -11 69 -9 210 -20 314 -23 205 -7 233 -14 193 -53 -26 -25 -128
-65 -218 -85 l-74 -17 9 -31 c5 -18 9 -33 9 -34 0 -2 252 -3 561 -3 l560 0 -6
23 c-12 38 -77 241 -82 254 -3 6 14 32 37 56 l41 45 -27 21 c-24 19 -40 21
-165 21 l-139 0 0 55 0 55 163 0 162 -1 79 -75z"/>
<path d="M5870 4113 c0 -5 64 -207 142 -450 86 -268 145 -436 149 -425 3 9 9
32 12 50 6 28 4 32 -14 32 -17 0 -20 5 -17 38 l3 37 88 3 87 3 0 -41 c0 -36
-3 -40 -25 -40 -19 0 -26 -7 -34 -37 -6 -21 -11 -44 -11 -51 0 -7 171 177 379
410 l380 422 -15 28 -15 28 -554 0 c-305 0 -555 -3 -555 -7z"/>
<path d="M5678 3938 c-115 -144 -112 -126 -41 -202 125 -133 183 -278 191
-477 l5 -127 106 -16 c58 -9 109 -16 112 -16 7 0 -283 915 -292 925 -4 3 -40
-36 -81 -87z"/>
<path d="M4880 3835 c-181 -44 -340 -173 -420 -340 -50 -104 -64 -178 -58
-312 8 -169 64 -289 195 -414 115 -111 223 -163 366 -178 253 -25 471 72 602
269 39 58 91 177 82 186 -1 2 -126 26 -277 55 -223 42 -280 49 -303 41 -55
-21 -97 12 -97 74 0 33 5 47 20 56 18 11 370 465 378 487 4 12 -126 68 -186
80 -71 15 -234 12 -302 -4z"/>
<path d="M7425 3826 c-72 -17 -145 -44 -164 -62 -12 -11 -9 -25 15 -96 35
-102 101 -205 187 -292 56 -57 69 -66 101 -66 49 0 76 -28 76 -81 0 -53 -13
-74 -51 -88 -62 -21 -116 9 -125 70 -5 31 -16 46 -59 79 -93 71 -181 192 -240
327 l-32 74 -37 -42 c-60 -66 -111 -152 -137 -231 -20 -62 -24 -93 -24 -203 0
-109 4 -141 23 -196 64 -187 209 -330 398 -395 68 -24 96 -28 194 -28 126 0
191 14 290 64 151 76 286 247 325 411 19 82 19 216 0 298 -32 135 -150 299
-272 377 -121 78 -325 113 -468 80z"/>
<path d="M5319 3472 c-125 -157 -153 -198 -140 -204 9 -4 113 -26 231 -48 118
-23 226 -44 239 -47 l23 -6 -4 99 c-5 114 -30 197 -85 283 -34 54 -91 121
-102 121 -4 0 -76 -89 -162 -198z"/>
</g>
</svg>
